<?xml version="1.0" ?>
<!-- Uploaded to: SVG Repo, www.svgrepo.com, Generator: SVG Repo Mixer Tools -->
<svg fill="#000000" width="800px" height="800px" viewBox="0 0 64 64" xmlns="http://www.w3.org/2000/svg">
<g id="a"/>
<g id="b">
<path d="M26.144,27.5c0-.2764,.2236-.5,.5-.5h4c.2764,0,.5,.2236,.5,.5s-.2236,.5-.5,.5h-4c-.2764,0-.5-.2236-.5-.5Zm-4,0c0-.2764-.2236-.5-.5-.5h-4c-.2764,0-.5,.2236-.5,.5s.2236,.5,.5,.5h4c.2764,0,.5-.2236,.5-.5Zm11.0005,5c0-.2764-.2241-.5-.5005-.5h-4c-.2764,0-.5,.2236-.5,.5s.2236,.5,.5,.5h4c.2764,0,.5005-.2236,.5005-.5Zm-9.0005,0c0-.2764-.2236-.5-.5-.5h-4c-.2764,0-.5,.2236-.5,.5s.2236,.5,.5,.5h4c.2764,0,.5-.2236,.5-.5Zm2.5,4.5h-4c-.2764,0-.5,.2236-.5,.5s.2236,.5,.5,.5h4c.2764,0,.5-.2236,.5-.5s-.2236-.5-.5-.5Zm-15.9253,1.0063c-.2749-.0464-.5303,.1362-.5771,.4082-.2651,1.5488-.397,3.8008-.4155,7.0869-.0015,.2764,.2212,.5015,.4971,.5029h.0029c.2749,0,.4985-.2222,.5-.4971,.0181-3.2305,.1455-5.4307,.4009-6.9238,.0469-.2725-.1362-.5308-.4082-.5771Zm46.0928-2.1294l-3.7686,3.1567,.4326,4.8965c.0127,.1475-.04,.293-.1445,.3975-.1035,.105-.251,.1616-.3975,.1445l-3.8909-.3434c.6438,2.6125,.9361,4.1319,.9388,4.1481,.0254,.1362-.0059,.2769-.0879,.3887s-.2061,.1846-.3438,.2012c-6.8271,.8164-15.7002,1.2217-26.8975,1.2217-4.6455,0-9.6904-.0698-15.1553-.2085-.2759-.0073-.4941-.2363-.4873-.5122,.3271-13.1841,2.6113-30.7568,2.6348-30.9326,.0322-.249,.2446-.4351,.4956-.4351h3.0462c-.0237-.1651-.0423-.3312-.0423-.5,0-1.9297,1.5703-3.5,3.5-3.5s3.5005,1.5703,3.5005,3.5c0,.1712-.0267,.3353-.0505,.5h1.0923c-.0237-.1651-.0423-.3312-.0423-.5,0-1.9297,1.5703-3.5,3.5-3.5s3.5005,1.5703,3.5005,3.5c0,.1712-.0267,.3353-.0505,.5h1.0923c-.0237-.1651-.0423-.3312-.0423-.5,0-1.9297,1.5703-3.5,3.5-3.5s3.5005,1.5703,3.5005,3.5c0,.1712-.0267,.3353-.0505,.5h2.9656c.5889,0,1.1133,.3149,1.3359,.8022,.8388,1.947,1.6432,3.9392,2.4117,5.9364l1.3071-1.5599c.1895-.2266,.5762-.2266,.7656,0l3.1572,3.7681,4.8965-.4321c.1465-.0137,.2939,.04,.3975,.1445,.1045,.1045,.1572,.25,.1445,.3975l-.4326,4.8965,3.7686,3.1572c.1133,.0952,.1787,.2354,.1787,.3833s-.0654,.2881-.1787,.3833ZM30.1995,18h4.8945c.033-.1616,.0506-.3288,.0506-.5,0-1.3784-1.1221-2.5-2.5005-2.5s-2.5,1.1216-2.5,2.5c0,.1699,.0222,.3362,.0554,.5Zm-8,0h4.8945c.033-.1616,.0506-.3288,.0506-.5,0-1.3784-1.1216-2.5-2.5005-2.5s-2.5,1.1216-2.5,2.5c0,.1699,.0222,.3362,.0554,.5Zm-8,0h4.8945c.033-.1616,.0506-.3288,.0506-.5,0-1.3784-1.1216-2.5-2.5005-2.5s-2.5,1.1216-2.5,2.5c0,.1699,.0222,.3362,.0554,.5Zm-6.1765,30.8926c2.4346,.0602,4.7776,.1053,7.0452,.1378-.537-3.2382-2.3221-13.4988-2.3411-13.6075-.0474-.2725,.1348-.5312,.4067-.5786,.2764-.0459,.5308,.1353,.5786,.4067,.0193,.1112,1.8714,10.7576,2.3716,13.7922,1.2425,.0157,2.4618,.0273,3.6541,.0344-3.8748-15.3188-7.7578-25.0912-9.3235-28.7412-.5742,4.7137-2.0919,17.9518-2.3916,28.5562Zm40.8696-.9561c-.1423-.6815-.4327-2.0114-.8911-3.854l-3.1216,3.7256c-.0947,.1133-.2354,.1787-.3828,.1787s-.2881-.0654-.3828-.1787l-3.1572-3.7681-4.8965,.4321c-.1436,.0171-.293-.0396-.3975-.1445-.1045-.1045-.1572-.25-.1445-.3975l.4326-4.8965-3.769-3.1567c-.1133-.0952-.1787-.2354-.1787-.3833s.0654-.2881,.1787-.3833l3.769-3.1572-.4326-4.8965c-.0127-.1475,.04-.293,.1445-.3975s.2539-.1582,.3975-.1445l4.8965,.4321,1.118-1.3344c-.8212-2.1578-1.6916-4.3114-2.5936-6.4049-.0537-.1162-.2324-.2075-.4219-.2075h-3.2661c-.5641,1.1782-1.7582,2-3.1494,2-.2764,0-.5-.2236-.5-.5s.2236-.5,.5-.5c.8135,0,1.5306-.3965,1.9875-1h-6.8381c-.5641,1.1782-1.7582,2-3.1494,2-.2764,0-.5-.2236-.5-.5s.2236-.5,.5-.5c.8138,0,1.5308-.3965,1.9877-1h-6.8383c-.5641,1.1782-1.7582,2-3.1494,2-.2764,0-.5-.2236-.5-.5s.2236-.5,.5-.5c.8138,0,1.5308-.3965,1.9877-1h-7.7098c1.2006,2.6917,5.5415,12.9836,9.8494,30.0842,11.749,.046,21.0231-.3339,28.1213-1.1477Zm6.8193-12.4429l-3.5107-2.9414c-.125-.105-.1914-.2646-.1768-.4272l.4023-4.562-4.5615,.4028c-.165,.0142-.3232-.0522-.4268-.1768l-2.9414-3.5103-2.9414,3.5103c-.1035,.125-.2646,.1958-.4268,.1768l-4.5615-.4028,.4023,4.562c.0146,.1626-.0518,.3223-.1768,.4272l-3.5107,2.9414,3.5107,2.9409c.125,.105,.1914,.2646,.1768,.4272l-.4023,4.562,4.5615-.4028c.0146-.0015,.0293-.002,.0439-.002,.1475,0,.2881,.0649,.3828,.1787l2.9414,3.5103,2.9414-3.5103c.1045-.1245,.2666-.1909,.4268-.1768l4.5615,.4028-.4023-4.562c-.0146-.1626,.0518-.3223,.1768-.4272l3.5107-2.9409Zm-8.2422,.2959c.6738,1.1035,.7129,2.335,.1074,3.377-.531,.9164-1.5057,1.5154-2.6312,1.6766-.0265,.1223-.0514,.2347-.0576,.2902-.0724,.444-.7509,.436-.8206,0l-.0512-.2618c-1.3649-.1588-2.5328-1.0726-2.8857-1.9335-.3193-.7783-.083-1.5449,.5879-1.9077,.7197-.3882,1.6182-.1665,2.0439,.5068,.1338,.2031,.5137,.5156,.6689,.4976,.2344-.0161,.4131-.1079,.4971-.2529,.1064-.1821,.0176-.4014-.0752-.5532-.1074-.1704-.7539-.5996-1.0645-.8057-.9883-.6553-2.2168-1.4712-2.4072-2.7632-.1328-.916,.1367-1.8369,.7402-2.5269,.4826-.5524,1.1536-.8984,1.9034-1.0184l.0422-.2159c.0697-.436,.7482-.4439,.8206,0,.0042,.0374,.0172,.1004,.033,.1738,1.2541,.114,2.1189,.8571,2.4283,1.4034,.4062,.7173,.1973,1.5635-.4854,1.9678-.6895,.4106-1.5889,.231-2.0488-.4062-.0127-.0142-.1172-.1216-.2676-.1108-.0703,.0049-.085,.0215-.1006,.04-.0469,.0532-.0889,.1694-.0703,.2969,.0557,.0449,.4502,.3477,1.1455,.8091,.7432,.4927,1.5117,1.0024,1.9473,1.7173Zm-.8535,.5205c-.3203-.5254-.9941-.9722-1.6465-1.4048-1.0439-.6929-1.5205-1.0737-1.583-1.4976-.0586-.4014,.0566-.8125,.3076-1.1001,.2012-.229,.4658-.356,.7861-.3789,.6416-.0435,1.0312,.3774,1.1338,.5063,.168,.2319,.5,.2925,.7393,.1484,.2627-.1553,.2314-.4287,.125-.6152-.1865-.3311-.9551-.9888-2.082-.9062-.6084,.0439-1.1494,.3027-1.5225,.729-.4102,.4697-.5938,1.0981-.502,1.7236,.124,.8506,1.1045,1.501,1.9697,2.0752,.6729,.4468,1.165,.7881,1.3652,1.1177,.3262,.5337,.3584,1.1084,.0869,1.5767-.2539,.4365-.7227,.709-1.2871,.748-.8975,.0615-1.5781-.9443-1.585-.9541-.0957-.1519-.2734-.2354-.4561-.2354-.0928,0-.1875,.0215-.2725,.0674-.2979,.1611-.1953,.5073-.1367,.6484,.2402,.5894,1.3086,1.4209,2.5342,1.3398,.917-.0635,1.71-.5249,2.1211-1.2334,.416-.7158,.3809-1.5737-.0957-2.355Z"/>
</g>
</svg>