<?xml version="1.0" ?>
<!-- Uploaded to: SVG Repo, www.svgrepo.com, Generator: SVG Repo Mixer Tools -->
<svg width="800px" height="800px" viewBox="0 0 120 120" id="Layer_1" version="1.1" xml:space="preserve" xmlns="http://www.w3.org/2000/svg" xmlns:xlink="http://www.w3.org/1999/xlink">
<style type="text/css">
	.st0{fill:#F9F9F9;}
	.st1{fill:#77D6FF;}
	.st2{fill:#60C0E2;}
	.st3{fill:#DEF4FF;}
	.st4{fill:#FFDB86;}
	.st5{fill:#F27D75;}
	.st6{fill:#FCE5B9;}
	.st7{fill:#A4E7FF;}
</style>
<g>
<path class="st0" d="M17.1,107.4h85.7V39.7c0-10-8.1-18.1-18.1-18.1H35.2c-10,0-18.1,8.1-18.1,18.1V107.4z"/>
<path class="st1" d="M17.1,38.5v8.3h85.7v-8.3c0-9.3-7.6-16.9-16.9-16.9H34C24.7,21.6,17.1,29.2,17.1,38.5z"/>
<g>
<ellipse class="st2" cx="42" cy="34.9" rx="5.3" ry="5.3" transform="matrix(0.7071 -0.7071 0.7071 0.7071 -12.3403 39.9119)"/>
<ellipse class="st2" cx="60" cy="34.9" rx="5.3" ry="5.3" transform="matrix(0.9732 -0.2298 0.2298 0.9732 -6.4023 14.7176)"/>
<ellipse class="st2" cx="78" cy="34.9" rx="5.3" ry="5.3" transform="matrix(0.9732 -0.2298 0.2298 0.9732 -5.921 18.8514)"/>
</g>
<g>
<path class="st3" d="M42,12.6c-2.1,0-3.9,1.7-3.9,3.9v16.6c0,2.1,1.7,3.9,3.9,3.9s3.9-1.7,3.9-3.9V16.5    C45.9,14.4,44.1,12.6,42,12.6z"/>
<path class="st3" d="M78,12.6c-2.1,0-3.9,1.7-3.9,3.9v16.6c0,2.1,1.7,3.9,3.9,3.9s3.9-1.7,3.9-3.9V16.5    C81.9,14.4,80.1,12.6,78,12.6z"/>
<path class="st3" d="M60,12.6c-2.1,0-3.9,1.7-3.9,3.9v16.6c0,2.1,1.7,3.9,3.9,3.9s3.9-1.7,3.9-3.9V16.5    C63.9,14.4,62.1,12.6,60,12.6z"/>
</g>
<g>
<path class="st4" d="M84.5,95.7l-6.8,6c-0.5,0.5-1.4,0.1-1.5-0.6L75.4,92c0-0.1,0-0.3,0.1-0.4l14.2-35.1c0.2-0.5,0.7-0.7,1.2-0.5    l7.6,3.1c0.5,0.2,0.7,0.7,0.5,1.2L84.7,95.3C84.7,95.5,84.6,95.6,84.5,95.7z"/>
<path class="st5" d="M95.5,68.7l-9.2-3.7l3.1-7.6c0.4-0.9,1.4-1.3,2.3-1l6,2.4c0.9,0.4,1.3,1.4,1,2.3L95.5,68.7z"/>
<path class="st6" d="M84.7,95.3L84.7,95.3c-0.1,0.2-0.2,0.3-0.3,0.4l-6.8,6.1c-0.5,0.5-1.4,0.1-1.5-0.6L75.4,92    c0-0.1,0-0.3,0.1-0.4l0-0.1L84.7,95.3z"/>
</g>
<g>
<rect class="st5" height="8.3" width="13.1" x="63.9" y="57"/>
<rect class="st5" height="8.3" width="13.1" x="63.9" y="70.4"/>
</g>
<g>
<rect class="st7" height="8.3" width="13.1" x="27.2" y="57"/>
<rect class="st7" height="8.3" width="13.1" x="45.9" y="57"/>
<rect class="st7" height="8.3" width="13.1" x="27.2" y="70.4"/>
<rect class="st7" height="8.3" width="13.1" x="45.9" y="70.4"/>
<rect class="st7" height="8.3" width="13.1" x="27.2" y="83.8"/>
<rect class="st7" height="8.3" width="13.1" x="45.9" y="83.8"/>
</g>
</g>
</svg>